<svg width="24" height="24" viewBox="0 0 24 24" fill="none" xmlns="http://www.w3.org/2000/svg">
<path d="M12 18L16 14L14.6 12.6L13 14.2V10H11V14.2L9.4 12.6L8 14L12 18ZM5 8V19H19V8H5ZM5 21C4.45 21 3.975 20.8083 3.575 20.425C3.19167 20.025 3 19.55 3 19V6.525C3 6.29167 3.03333 6.06667 3.1 5.85C3.18333 5.63333 3.3 5.43333 3.45 5.25L4.7 3.725C4.88333 3.49167 5.10833 3.31667 5.375 3.2C5.65833 3.06667 5.95 3 6.25 3H17.75C18.05 3 18.3333 3.06667 18.6 3.2C18.8833 3.31667 19.1167 3.49167 19.3 3.725L20.55 5.25C20.7 5.43333 20.8083 5.63333 20.875 5.85C20.9583 6.06667 21 6.29167 21 6.525V19C21 19.55 20.8 20.025 20.4 20.425C20.0167 20.8083 19.55 21 19 21H5ZM5.4 6H18.6L17.75 5H6.25L5.4 6Z" fill="white"/>
</svg>
